<svg width="1036.3" height="308.77" version="1.1" viewBox="0 0 274.2 81.696" xmlns="http://www.w3.org/2000/svg">
 <g transform="translate(1.5658 -91.414)" fill="none" stroke="#fff" stroke-linecap="round" stroke-linejoin="round" stroke-width="5.2917">
  <path d="m235.74 94.662c20.242 0 34.251 18.917 34.251 37.964s-15.004 37.411-34.525 37.26-34.259-18.146-34.362-37.552 14.394-37.673 34.636-37.673z"/>
  <path d="m209.96 107.18 24.897 62.686"/>
  <path d="m192.77 94.708v75.424"/>
  <path d="m163.07 95.057-14.241 35.604"/>
  <path d="m179.12 103.99c-3.1981-4.4978-6.6743-6.8444-11.957-8.457-5.9382-1.8127-13.497-1.91-19.698-.44415-9.6588 2.2829-16.463 7.55-16.438 18.162.0126 5.3548 1.8763 9.6406 5.8494 12.973 4.8159 4.0394 10.359 5.3132 21.884 5.6063 17.611.4479 25.506 7.9406 25.649 17.732.24803 16.989-19.373 19.641-25.67 19.684-6.0906.0416-8.9086-.1233-13.722-1.7769-10.485-3.6025-15.079-9.3109-15.079-9.3109"/>
  <path d="m60.161 94.687 59.526 74.72-57.909.0893 59.595-74.807"/>
  <path d="m33.215 95.416-32.135 74.894.001323-75.107"/>
  <path d="m1.0814 95.216 30.187.0027c10.778.000964 20.204 9.947 20.204 21.991s-8.1868 22.197-19.752 22.199l-17.337.003"/>
  <path d="m31.205 139.55 19.974 30.914"/>
 </g>
</svg>
